<svg xmlns="http://www.w3.org/2000/svg" viewBox="0 0 512 512" role="img" aria-labelledby="title desc">
  <title id="title">Fulbito</title>
  <desc id="desc">Escudo premium navy y dorado con monograma F</desc>
  <defs>
    <linearGradient id="gold" x1="104" y1="52" x2="408" y2="454" gradientUnits="userSpaceOnUse">
      <stop offset="0" stop-color="#fff2b8"/>
      <stop offset=".44" stop-color="#e8b84f"/>
      <stop offset="1" stop-color="#8e5d1e"/>
    </linearGradient>
    <linearGradient id="edge" x1="110" y1="60" x2="406" y2="442" gradientUnits="userSpaceOnUse">
      <stop offset="0" stop-color="#fff8d8"/>
      <stop offset=".52" stop-color="#c58c2e"/>
      <stop offset="1" stop-color="#f7df91"/>
    </linearGradient>
    <filter id="glow" x="-30%" y="-30%" width="160%" height="160%">
      <feDropShadow dx="0" dy="20" stdDeviation="20" flood-color="#000000" flood-opacity=".62"/>
      <feDropShadow dx="0" dy="0" stdDeviation="8" flood-color="#e8b84f" flood-opacity=".28"/>
    </filter>
  </defs>
  <rect width="512" height="512" rx="112" fill="#05070d"/>
  <path d="M72 100h368M48 160h416M38 222h436M48 284h416M72 346h368" stroke="#ffffff" stroke-opacity=".05" stroke-width="2"/>
  <path d="M256 42 400 100v118c0 98-58 165-144 222-86-57-144-124-144-222V100L256 42Z" fill="#07101c" stroke="url(#edge)" stroke-width="14" filter="url(#glow)"/>
  <path d="M256 72 372 119v95c0 76-41 130-116 183-75-53-116-107-116-183v-95L256 72Z" fill="url(#gold)" opacity=".96"/>
  <path d="M173 151h179v54H228v43h103v52H228v101h-55V151Z" fill="#05070d"/>
  <path d="M229 205h102l-28 43h-75l1-43Z" fill="#f7e5ad" opacity=".9"/>
  <path d="M181 151h171v20H181v-20Zm47 97h93v18h-93v-18Z" fill="#fff6d0" opacity=".95"/>
  <path d="M256 18 269 45 299 49 277 70 282 100 256 86 230 100 235 70 213 49 243 45 256 18Z" fill="url(#gold)"/>
</svg>
